# xmcd CD database file
#
# Track frame offsets:
#	150
#	16887
#	33868
#	46830
#	65499
#	84074
#	106239
#	124724
#	142703
#	158345
#
# Disc length: 2367 seconds
#
# Revision: 0
# Processed by: cddbd v1.5PL3 Copyright (c) Steve Scherf et al.
# Submitted via: CDex 1.50
#
DISCID=63093d0a
DTITLE=Side A - Titanium
DYEAR=2003
DGENRE=OPM
TTITLE0=Dream On
TTITLE1=Love Is Another
TTITLE2=Fragile
TTITLE3=Break My Heart Again
TTITLE4=Don't let The World Win
TTITLE5=Nais Ko
TTITLE6=With You
TTITLE7=When I C U 2nyt
TTITLE8=Make Believe
TTITLE9=I Surrender
EXTD=YEAR: 2003
EXTT0=
EXTT1=
EXTT2=
EXTT3=
EXTT4=
EXTT5=
EXTT6=
EXTT7=
EXTT8=
EXTT9=
PLAYORDER=
